<svg width="95" height="98" viewBox="0 0 95 98" fill="none" xmlns="http://www.w3.org/2000/svg">
<path d="M63.1354 84.8868C60.6907 84.8868 58.7127 87.0888 58.7127 89.7803C58.7127 92.4717 60.6907 94.6738 63.1354 94.6738C65.58 94.6738 67.5802 92.4717 67.5802 89.7803C67.5802 87.0888 65.58 84.8868 63.1354 84.8868ZM49.8008 45.7388V50.6323H54.2456L62.2464 69.2031L59.2461 75.1976C58.8905 75.8827 58.6905 76.6902 58.6905 77.5465C58.6905 80.2379 60.6907 82.44 63.1354 82.44H89.8046V77.5465H64.0688C63.7577 77.5465 63.5132 77.2774 63.5132 76.9348L63.5799 76.6412L65.58 72.653H82.1372C83.804 72.653 85.2708 71.6499 86.0264 70.1329L93.9827 54.2535C94.1605 53.9109 94.2494 53.495 94.2494 53.079C94.2494 51.7333 93.2493 50.6323 92.027 50.6323H59.1572L57.0681 45.7388H49.8008ZM85.3597 84.8868C82.915 84.8868 80.9371 87.0888 80.9371 89.7803C80.9371 92.4717 82.915 94.6738 85.3597 94.6738C87.8044 94.6738 89.8046 92.4717 89.8046 89.7803C89.8046 87.0888 87.8044 84.8868 85.3597 84.8868Z" fill="#235E74"/>
<path fill-rule="evenodd" clip-rule="evenodd" d="M12.3316 88.5095C11.7725 86.0581 15.6424 79.4405 18.861 79.4405C22.6289 79.4405 25.3213 82.2919 26.6842 84.0216C27.8261 85.4708 28.1943 87.2947 28.26 89.0497C28.3244 90.7673 26.819 92.1477 24.5646 91.797C21.7699 91.797 12.7677 90.4215 12.3316 88.5095Z" fill="#235E74"/>
<path fill-rule="evenodd" clip-rule="evenodd" d="M28.1322 86.0139C26.4793 84.21 23.9376 81.8798 23.973 79.3349C24.013 76.4569 25.2 74.6471 27.4091 73.1723C29.5517 71.742 32.4524 73.75 34.92 74.3797C37.1124 74.9393 39.48 76.4414 40.9997 78.2959C42.6477 80.3072 43.8787 80.503 44.8124 84.0074C45.4067 86.8111 45.1079 88.0713 42.7114 89.3938C40.3594 90.6919 37.4525 87.9734 34.9124 87.0954C33.0067 86.4367 29.5596 87.5718 28.1322 86.0139Z" fill="#235E74"/>
<path fill-rule="evenodd" clip-rule="evenodd" d="M26.7554 55.1892C24.715 55.5351 22.9307 54.9154 21.5188 54.2493C20.2403 53.646 18.11 52.4974 18.4205 51.3989C18.684 50.4668 21.3066 49.6233 22.5375 49.0626C23.6212 48.5689 25.6603 47.7858 26.7554 47.3804C28.658 46.6762 29.5156 46.043 31.3485 46.3336C33.2075 46.6284 33.306 48.133 33.426 49.3213C33.5419 50.4676 33.2321 51.6838 31.9988 52.7686C30.7184 53.895 28.8386 54.8359 26.7554 55.1892Z" fill="#235E74"/>
<path fill-rule="evenodd" clip-rule="evenodd" d="M20.7115 63.7402C18.0256 62.7678 17.6177 63.0965 16.2974 61.2166C15.1018 59.5141 16.8798 57.4163 17.9102 56.1702C18.7845 55.1128 21.7714 53.9601 23.6705 53.7987C25.0999 53.6772 26.4843 53.7246 28.0564 53.9537C30.7878 54.3517 33.9424 53.9198 35.9977 55.595C38.0823 57.294 38.4185 58.8016 37.8582 60.4698C37.3176 62.0794 34.1029 63.1605 31.9589 63.7402C29.7329 64.342 23.4537 64.7329 20.7115 63.7402Z" fill="#235E74"/>
<path fill-rule="evenodd" clip-rule="evenodd" d="M22.7839 75.4556C21.6845 75.0577 20.3688 73.733 19.8595 72.7985C19.2738 71.7238 19.9325 69.4654 20.9629 68.2193C21.8372 67.1619 22.7879 65.6898 24.9525 64.9484C26.8625 64.2942 27.4991 64.2008 29.5364 63.827C32.2103 63.827 34.8663 62.3852 36.9216 64.0604C39.0062 65.7594 40.491 70.517 39.9306 72.1853C39.39 73.7948 36.1754 74.876 34.0313 75.4556C31.8053 76.0574 24.9526 76.2405 22.7839 75.4556Z" fill="#235E74"/>
<path fill-rule="evenodd" clip-rule="evenodd" d="M7.12859 78.8164C4.38732 79.5789 4.20116 80.5172 2.7644 82.2905C1.46323 83.8964 1.08731 85.1571 2.03572 86.4797C2.84049 87.602 4.69298 87.4804 6.5771 87.7881C7.99524 88.0197 9.7903 87.6574 11.3731 87.5503C14.1231 87.3643 14.4275 86.8374 14.9374 86.4799C15.5311 86.0636 15.9273 84.6573 15.7431 83.956C15.3593 83.0219 13.6617 80.0274 12.349 79.5634C11.1151 79.1273 9.92735 78.038 7.12859 78.8164Z" fill="#235E74"/>
<path fill-rule="evenodd" clip-rule="evenodd" d="M27.5932 87.0522C27.5953 86.6787 27.6625 86.1769 28.4846 85.6037C29.2796 85.2298 30.1685 85.075 31.0737 85.23C31.9937 85.3875 32.4334 85.23 33.3247 85.7912C33.834 86.1118 34.4707 87.2397 34.598 87.8004C34.7112 88.2991 34.8708 89.283 34.1716 89.9027C33.4521 90.5404 32.5943 90.4501 31.6705 90.3824C30.5525 90.3005 29.1603 90.0497 28.8682 89.6695C28.6034 89.3248 27.5862 88.3254 27.5932 87.0522Z" fill="#235E74"/>
<path fill-rule="evenodd" clip-rule="evenodd" d="M28.3832 94.4397C27.6378 94.4442 26.4314 94.5369 26.1538 93.7823C25.8315 92.9063 26.5989 92.2989 27.3094 91.7599C27.98 91.2512 29.1255 91.0975 29.7837 91.6251C30.4294 92.1426 30.8095 92.965 30.5259 93.7823C30.2689 94.5229 29.1093 94.4353 28.3832 94.4397Z" fill="#235E74"/>
<path fill-rule="evenodd" clip-rule="evenodd" d="M9.60794 86.6722C7.60697 87.3966 5.94889 88.7187 4.96536 90.1192C4.07464 91.3876 3.64512 92.2943 4.41273 93.2226C5.06407 94.0103 6.86024 94.1647 8.27503 94.285C9.33992 94.3755 10.3123 94.285 11.7728 94.285C13.835 94.285 17.6125 94.285 18.2473 93.5032C19.8003 92.2375 19.0584 89.8015 18.4188 88.6902C17.6984 87.4381 17.3422 86.6454 15.745 86.2136C14.0866 85.7653 11.6509 85.9326 9.60794 86.6722Z" fill="#235E74"/>
<path fill-rule="evenodd" clip-rule="evenodd" d="M10.8792 69.3913C11.3034 68.1296 12.168 66.9433 13.1711 65.5597C14.0795 64.3067 18.1407 63.0365 20.475 63.6439C22.5547 64.1851 23.4265 65.3365 23.8676 66.8213C24.1996 67.939 20.6417 70.4003 20.9874 71.9625C21.4757 74.1683 25.1403 77.4283 23.2728 78.8301C20.9874 80.5456 16.9912 80.9799 15.4635 80.9798C13.9356 80.9796 9.00661 80.4363 8.24739 78.8301C7.45911 77.1624 10.5406 70.3982 10.8792 69.3913Z" fill="#235E74"/>
<path d="M25.4883 36.0157V4.50908C25.4883 4.36411 25.6058 4.24658 25.7508 4.24658H74.9466C75.0915 4.24658 75.2091 4.36411 75.2091 4.50908V36.0157" stroke="#235E74" stroke-width="6.75004" stroke-linecap="round"/>
<path d="M74.9805 36.2793L83.1531 27.2817" stroke="#235E74" stroke-width="6.75004" stroke-linecap="round"/>
<path d="M74.9805 36.2793L66.8078 27.2817" stroke="#235E74" stroke-width="6.75004" stroke-linecap="round"/>
</svg>
