<svg width="33" height="33" viewBox="0 0 33 33" fill="none" xmlns="http://www.w3.org/2000/svg">
<g id="phone">
<path id="Vector" d="M9.1025 14.8363C11.0825 18.7275 14.2725 21.9037 18.1637 23.8975L21.1887 20.8725C21.56 20.5013 22.11 20.3775 22.5913 20.5425C24.1313 21.0512 25.795 21.3263 27.5 21.3263C28.2563 21.3263 28.875 21.945 28.875 22.7013V27.5C28.875 28.2563 28.2563 28.875 27.5 28.875C14.5887 28.875 4.125 18.4113 4.125 5.5C4.125 4.74375 4.74375 4.125 5.5 4.125H10.3125C11.0687 4.125 11.6875 4.74375 11.6875 5.5C11.6875 7.21875 11.9625 8.86875 12.4712 10.4088C12.6225 10.89 12.5125 11.4262 12.1275 11.8113L9.1025 14.8363Z" fill="#FBFAF0"/>
</g>
</svg>
