<svg width="32" height="32" viewBox="0 0 32 32" fill="none" xmlns="http://www.w3.org/2000/svg">
<g id="Close">
<path id="Vector 2" d="M20.3637 16L30.5858 5.77785C31.3669 4.9968 31.3669 3.73048 30.5858 2.94943L29.0507 1.41423C28.2696 0.633171 27.0033 0.633167 26.2222 1.41422L16 11.6364L5.77786 1.41421C4.99681 0.633165 3.73048 0.633164 2.94943 1.41421L1.41421 2.94943C0.633165 3.73048 0.633166 4.99681 1.41421 5.77786L11.6364 16L1.4143 26.2221C0.633253 27.0031 0.633252 28.2695 1.4143 29.0505L2.94956 30.5858C3.73061 31.3668 4.99694 31.3668 5.77799 30.5858L16.0001 20.3637L26.2222 30.5858C27.0033 31.3668 28.2696 31.3668 29.0507 30.5858L30.5858 29.0506C31.3669 28.2696 31.3669 27.0032 30.5858 26.2222L20.3637 16Z" fill="#2C2D31"/>
</g>
</svg>
