<svg width="18" height="19" viewBox="0 0 18 19" fill="none" xmlns="http://www.w3.org/2000/svg">
<path d="M11.4546 9.50001L16.7728 4.18181C17.4506 3.50401 17.4506 2.40508 16.7728 1.72728C16.095 1.04947 14.996 1.04947 14.3182 1.72727L9.00001 7.04546L3.68182 1.72727C3.00402 1.04947 1.90508 1.04947 1.22727 1.72727C0.549469 2.40508 0.54947 3.50402 1.22728 4.18182L6.54546 9.50001L1.22734 14.8181C0.549525 15.496 0.549525 16.5949 1.22734 17.2727C1.90515 17.9505 3.0041 17.9505 3.68191 17.2727L9.00006 11.9546L14.3182 17.2727C14.996 17.9505 16.095 17.9505 16.7728 17.2727C17.4506 16.5949 17.4506 15.496 16.7728 14.8182L11.4546 9.50001Z" fill="#307084"/>
</svg>
