<svg width="64" height="121" viewBox="0 0 64 121" fill="none" xmlns="http://www.w3.org/2000/svg">
<path d="M2.55387 1.78711C2.24617 1.78711 2 2.1186 2 2.53296C2 2.94732 2.24617 3.27881 2.55387 3.27881C2.86158 3.27881 3.10774 2.94732 3.10774 2.53296C3.10774 2.1186 2.86158 1.78711 2.55387 1.78711Z" fill="#235E74"/>
<path d="M3.10774 2.53296C3.10774 2.1186 2.86158 1.78711 2.55387 1.78711C2.24617 1.78711 2 2.1186 2 2.53296C2 2.94732 2.24617 3.27881 2.55387 3.27881C2.86158 3.27881 3.10774 2.94732 3.10774 2.53296ZM3.10774 2.53296L12.6457 2.2961C23.8823 2.01706 33.1422 11.0498 33.1422 22.2899V89.7087C33.1422 100.785 42.1443 109.752 53.2205 109.709L62 109.674" stroke="#235E74" stroke-width="3" stroke-dasharray="6 6"/>
</svg>
