<svg width="88" height="88" viewBox="0 0 88 88" fill="none" xmlns="http://www.w3.org/2000/svg">
<circle cx="44" cy="44" r="44" fill="#235E74"/>
<path d="M64 42.16V44C63.9975 48.3128 62.601 52.5093 60.0187 55.9636C57.4363 59.4179 53.8066 61.9449 49.6707 63.1678C45.5349 64.3906 41.1145 64.2438 37.0689 62.7491C33.0234 61.2545 29.5693 58.4922 27.2219 54.8741C24.8745 51.256 23.7596 46.9761 24.0434 42.6726C24.3271 38.3691 25.9944 34.2726 28.7966 30.9941C31.5987 27.7156 35.3856 25.4307 39.5924 24.4803C43.7992 23.5298 48.2005 23.9646 52.14 25.72M64 28L44 48.02L38 42.02" stroke="#FDFBF6" stroke-width="5" stroke-linecap="round" stroke-linejoin="round"/>
</svg>
