<svg width="1440" height="1024" viewBox="0 0 1440 1024" fill="none" xmlns="http://www.w3.org/2000/svg">
<g opacity="0.5">
<path d="M915.577 450.692L852.932 426.939L810.781 446.734L784 481.648L801.306 535.06H901.294L928 506.218L915.577 450.692Z" stroke="#307084" stroke-width="4" stroke-dasharray="4 4"/>
<path d="M558.855 534.822L566.254 520.965L592.676 468.356L649.982 444.87L663.604 484.679L611.465 534.822H558.855Z" fill="#235E74" stroke="#FDFBF6" stroke-width="1.7539"/>
<path d="M512 503.114L529.38 479.627L566.253 520.846L558.855 534.82H542.767L512 503.114Z" fill="#235E74" stroke="#FDFBF6" stroke-width="1.7539"/>
<path d="M573.533 454.034L542.649 460.845L529.379 479.399L566.37 520.735L592.557 468.478L573.533 454.034Z" fill="#235E74" stroke="#FDFBF6" stroke-width="1.7539"/>
<path d="M592.559 468.236L573.535 453.792L636.478 419.502L649.865 444.75L592.559 468.236Z" fill="#235E74" stroke="#FDFBF6" stroke-width="1.7539"/>
<path d="M636.243 419.505L573.534 454.03L542.767 460.841L536.309 426.786L556.976 411.755L619.215 406.94L636.243 419.505Z" fill="#235E74" stroke="#FDFBF6" stroke-width="1.7539"/>
<path d="M632.004 516.254L640.983 534.549C641.101 534.789 641.345 534.941 641.613 534.941H781.568C781.754 534.941 781.932 534.867 782.064 534.736L794.358 522.441C794.543 522.257 794.61 521.985 794.532 521.736L784.859 490.76C784.817 490.625 784.734 490.505 784.623 490.418L730.616 447.934C730.424 447.782 730.166 447.742 729.937 447.828L683.004 465.37C682.912 465.404 682.827 465.458 682.757 465.527L632.141 515.445C631.926 515.657 631.871 515.983 632.004 516.254Z" fill="#235E74" stroke="#FDFBF6" stroke-width="1.7539"/>
<path d="M760.178 496.149L784.162 490.693C784.519 490.612 784.878 490.818 784.987 491.167L794.532 521.62C794.61 521.867 794.545 522.136 794.363 522.321L782.182 534.728C782.05 534.863 781.869 534.938 781.681 534.938H714.882C714.224 534.938 713.928 534.113 714.437 533.695L759.887 496.292C759.972 496.222 760.071 496.173 760.178 496.149Z" fill="#235E74" stroke="#FDFBF6" stroke-width="1.7539"/>
<path d="M684.885 465.976L759.808 496.106C759.943 496.16 760.091 496.171 760.232 496.138L783.374 490.654C783.946 490.518 784.108 489.781 783.645 489.419L730.498 447.816C730.305 447.665 730.047 447.626 729.818 447.712L684.899 464.669C684.301 464.895 684.292 465.738 684.885 465.976Z" fill="#235E74" stroke="#FDFBF6" stroke-width="1.7539"/>
<path d="M656.852 490.982L683.241 465.622C683.44 465.43 683.733 465.374 683.989 465.477L759.034 495.748C759.529 495.948 759.629 496.604 759.216 496.942L713.237 534.55C713.112 534.653 712.955 534.709 712.793 534.709H683.957C683.715 534.709 683.49 534.585 683.362 534.38L656.744 491.86C656.568 491.578 656.613 491.212 656.852 490.982Z" stroke="#FDFBF6" stroke-width="1.7539"/>
</g>
<path d="M629.814 606.06V578.06H632.774V603.5H648.454V606.06H629.814ZM661.016 606.26C658.989 606.26 657.163 605.807 655.536 604.9C653.936 603.967 652.669 602.7 651.736 601.1C650.803 599.473 650.336 597.62 650.336 595.54C650.336 593.433 650.803 591.58 651.736 589.98C652.669 588.38 653.936 587.127 655.536 586.22C657.136 585.313 658.963 584.86 661.016 584.86C663.096 584.86 664.936 585.313 666.536 586.22C668.163 587.127 669.429 588.38 670.336 589.98C671.269 591.58 671.736 593.433 671.736 595.54C671.736 597.62 671.269 599.473 670.336 601.1C669.429 602.7 668.163 603.967 666.536 604.9C664.909 605.807 663.069 606.26 661.016 606.26ZM661.016 603.74C662.536 603.74 663.883 603.407 665.056 602.74C666.229 602.047 667.149 601.087 667.816 599.86C668.509 598.607 668.856 597.167 668.856 595.54C668.856 593.887 668.509 592.447 667.816 591.22C667.149 589.993 666.229 589.047 665.056 588.38C663.883 587.687 662.549 587.34 661.056 587.34C659.563 587.34 658.229 587.687 657.056 588.38C655.883 589.047 654.949 589.993 654.256 591.22C653.563 592.447 653.216 593.887 653.216 595.54C653.216 597.167 653.563 598.607 654.256 599.86C654.949 601.087 655.883 602.047 657.056 602.74C658.229 603.407 659.549 603.74 661.016 603.74ZM690.577 606.06V601.42L690.457 600.66V592.9C690.457 591.113 689.95 589.74 688.937 588.78C687.95 587.82 686.47 587.34 684.497 587.34C683.137 587.34 681.844 587.567 680.617 588.02C679.39 588.473 678.35 589.073 677.497 589.82L676.217 587.7C677.284 586.793 678.564 586.1 680.057 585.62C681.55 585.113 683.124 584.86 684.777 584.86C687.497 584.86 689.59 585.54 691.057 586.9C692.55 588.233 693.297 590.273 693.297 593.02V606.06H690.577ZM683.337 606.26C681.764 606.26 680.39 606.007 679.217 605.5C678.07 604.967 677.19 604.247 676.577 603.34C675.964 602.407 675.657 601.34 675.657 600.14C675.657 599.047 675.91 598.06 676.417 597.18C676.95 596.273 677.804 595.553 678.977 595.02C680.177 594.46 681.777 594.18 683.777 594.18H691.017V596.3H683.857C681.83 596.3 680.417 596.66 679.617 597.38C678.844 598.1 678.457 598.993 678.457 600.06C678.457 601.26 678.924 602.22 679.857 602.94C680.79 603.66 682.097 604.02 683.777 604.02C685.377 604.02 686.75 603.66 687.897 602.94C689.07 602.193 689.924 601.127 690.457 599.74L691.097 601.7C690.564 603.087 689.63 604.193 688.297 605.02C686.99 605.847 685.337 606.26 683.337 606.26ZM709.371 606.26C707.371 606.26 705.571 605.807 703.971 604.9C702.397 603.993 701.157 602.74 700.251 601.14C699.344 599.513 698.891 597.647 698.891 595.54C698.891 593.407 699.344 591.54 700.251 589.94C701.157 588.34 702.397 587.1 703.971 586.22C705.571 585.313 707.371 584.86 709.371 584.86C711.211 584.86 712.851 585.273 714.291 586.1C715.757 586.927 716.917 588.14 717.771 589.74C718.651 591.313 719.091 593.247 719.091 595.54C719.091 597.807 718.664 599.74 717.811 601.34C716.957 602.94 715.797 604.167 714.331 605.02C712.891 605.847 711.237 606.26 709.371 606.26ZM709.571 603.74C711.064 603.74 712.397 603.407 713.571 602.74C714.771 602.047 715.704 601.087 716.371 599.86C717.064 598.607 717.411 597.167 717.411 595.54C717.411 593.887 717.064 592.447 716.371 591.22C715.704 589.993 714.771 589.047 713.571 588.38C712.397 587.687 711.064 587.34 709.571 587.34C708.104 587.34 706.784 587.687 705.611 588.38C704.437 589.047 703.504 589.993 702.811 591.22C702.117 592.447 701.771 593.887 701.771 595.54C701.771 597.167 702.117 598.607 702.811 599.86C703.504 601.087 704.437 602.047 705.611 602.74C706.784 603.407 708.104 603.74 709.571 603.74ZM717.491 606.06V599.74L717.771 595.5L717.371 591.26V576.38H720.211V606.06H717.491ZM728.12 606.06V585.06H730.96V606.06H728.12ZM729.56 580.42C728.973 580.42 728.48 580.22 728.08 579.82C727.68 579.42 727.48 578.94 727.48 578.38C727.48 577.82 727.68 577.353 728.08 576.98C728.48 576.58 728.973 576.38 729.56 576.38C730.147 576.38 730.64 576.567 731.04 576.94C731.44 577.313 731.64 577.78 731.64 578.34C731.64 578.927 731.44 579.42 731.04 579.82C730.667 580.22 730.173 580.42 729.56 580.42ZM749.582 584.86C751.289 584.86 752.782 585.193 754.062 585.86C755.369 586.5 756.382 587.487 757.102 588.82C757.849 590.153 758.222 591.833 758.222 593.86V606.06H755.382V594.14C755.382 591.927 754.822 590.26 753.702 589.14C752.609 587.993 751.062 587.42 749.062 587.42C747.569 587.42 746.262 587.727 745.142 588.34C744.049 588.927 743.196 589.793 742.582 590.94C741.996 592.06 741.702 593.42 741.702 595.02V606.06H738.862V585.06H741.582V590.82L741.142 589.74C741.809 588.22 742.876 587.033 744.342 586.18C745.809 585.3 747.556 584.86 749.582 584.86ZM774.854 614.02C772.934 614.02 771.094 613.74 769.334 613.18C767.574 612.62 766.147 611.82 765.054 610.78L766.494 608.62C767.48 609.5 768.694 610.193 770.134 610.7C771.6 611.233 773.147 611.5 774.774 611.5C777.44 611.5 779.4 610.873 780.654 609.62C781.907 608.393 782.534 606.473 782.534 603.86V598.62L782.934 595.02L782.654 591.42V585.06H785.374V603.5C785.374 607.127 784.48 609.78 782.694 611.46C780.934 613.167 778.32 614.02 774.854 614.02ZM774.334 605.26C772.334 605.26 770.534 604.833 768.934 603.98C767.334 603.1 766.067 601.887 765.134 600.34C764.227 598.793 763.774 597.02 763.774 595.02C763.774 593.02 764.227 591.26 765.134 589.74C766.067 588.193 767.334 586.993 768.934 586.14C770.534 585.287 772.334 584.86 774.334 584.86C776.2 584.86 777.88 585.247 779.374 586.02C780.867 586.793 782.054 587.94 782.934 589.46C783.814 590.98 784.254 592.833 784.254 595.02C784.254 597.207 783.814 599.06 782.934 600.58C782.054 602.1 780.867 603.26 779.374 604.06C777.88 604.86 776.2 605.26 774.334 605.26ZM774.614 602.74C776.16 602.74 777.534 602.42 778.734 601.78C779.934 601.113 780.88 600.207 781.574 599.06C782.267 597.887 782.614 596.54 782.614 595.02C782.614 593.5 782.267 592.167 781.574 591.02C780.88 589.873 779.934 588.98 778.734 588.34C777.534 587.673 776.16 587.34 774.614 587.34C773.094 587.34 771.72 587.673 770.494 588.34C769.294 588.98 768.347 589.873 767.654 591.02C766.987 592.167 766.654 593.5 766.654 595.02C766.654 596.54 766.987 597.887 767.654 599.06C768.347 600.207 769.294 601.113 770.494 601.78C771.72 602.42 773.094 602.74 774.614 602.74ZM793.556 606.26C792.97 606.26 792.463 606.047 792.036 605.62C791.636 605.193 791.436 604.673 791.436 604.06C791.436 603.42 791.636 602.9 792.036 602.5C792.463 602.1 792.97 601.9 793.556 601.9C794.143 601.9 794.636 602.1 795.036 602.5C795.463 602.9 795.676 603.42 795.676 604.06C795.676 604.673 795.463 605.193 795.036 605.62C794.636 606.047 794.143 606.26 793.556 606.26ZM802.033 606.26C801.446 606.26 800.94 606.047 800.513 605.62C800.113 605.193 799.913 604.673 799.913 604.06C799.913 603.42 800.113 602.9 800.513 602.5C800.94 602.1 801.446 601.9 802.033 601.9C802.62 601.9 803.113 602.1 803.513 602.5C803.94 602.9 804.153 603.42 804.153 604.06C804.153 604.673 803.94 605.193 803.513 605.62C803.113 606.047 802.62 606.26 802.033 606.26ZM810.51 606.26C809.923 606.26 809.416 606.047 808.99 605.62C808.59 605.193 808.39 604.673 808.39 604.06C808.39 603.42 808.59 602.9 808.99 602.5C809.416 602.1 809.923 601.9 810.51 601.9C811.096 601.9 811.59 602.1 811.99 602.5C812.416 602.9 812.63 603.42 812.63 604.06C812.63 604.673 812.416 605.193 811.99 605.62C811.59 606.047 811.096 606.26 810.51 606.26Z" fill="#5C5D6D"/>
</svg>
