<svg width="209" height="66" viewBox="0 0 209 66" fill="none" xmlns="http://www.w3.org/2000/svg">
<path d="M24.4277 64.9412L28.1268 58.0128L41.3378 31.7082L69.991 19.9651L76.802 39.8697L50.7323 64.9412H24.4277Z" fill="#235E74" stroke="#FDFBF6" stroke-width="0.87695"/>
<path d="M1 49.0881L9.68991 37.345L28.1266 57.9541L24.4275 64.9413H16.3835L1 49.0881Z" fill="#235E74" stroke="#FDFBF6" stroke-width="0.87695"/>
<path d="M31.7665 24.5449L16.3243 27.9504L9.68945 37.2275L28.1849 57.8954L41.2784 31.7669L31.7665 24.5449Z" fill="#235E74" stroke="#FDFBF6" stroke-width="0.87695"/>
<path d="M41.2795 31.6496L31.7676 24.4275L63.2391 7.28259L69.9327 19.9064L41.2795 31.6496Z" fill="#235E74" stroke="#FDFBF6" stroke-width="0.87695"/>
<path d="M63.1213 7.28257L31.7671 24.545L16.3837 27.9505L13.1543 10.9229L23.4882 3.40734L54.6075 1L63.1213 7.28257Z" fill="#235E74" stroke="#FDFBF6" stroke-width="0.87695"/>
<path d="M61.002 55.6562L65.4916 64.8037C65.5505 64.9238 65.6727 65 65.8065 65H135.784C135.877 65 135.966 64.963 136.032 64.8972L142.179 58.75C142.271 58.6578 142.305 58.5219 142.266 58.3974L137.429 42.9093C137.408 42.8417 137.367 42.782 137.312 42.7382L110.308 21.4962C110.212 21.4205 110.083 21.4004 109.968 21.4433L86.5021 30.2141C86.4558 30.2314 86.4137 30.2582 86.3786 30.2929L61.0706 55.2519C60.9631 55.3578 60.9355 55.5207 61.002 55.6562Z" fill="#235E74" stroke="#FDFBF6" stroke-width="0.87695"/>
<path d="M125.089 45.6053L137.081 42.8772C137.259 42.8367 137.439 42.9399 137.494 43.1144L142.266 58.3406C142.305 58.4641 142.272 58.5989 142.182 58.6912L136.091 64.8949C136.025 64.9621 135.935 64.9999 135.84 64.9999H102.441C102.112 64.9999 101.964 64.5874 102.218 64.3783L124.944 45.6765C124.986 45.6418 125.036 45.6175 125.089 45.6053Z" fill="#235E74" stroke="#FDFBF6" stroke-width="0.87695"/>
<path d="M87.4424 30.5174L124.904 45.5822C124.971 45.6093 125.045 45.6148 125.116 45.5981L136.687 42.8561C136.973 42.7884 137.054 42.4198 136.822 42.2386L110.249 21.4372C110.153 21.3617 110.024 21.342 109.909 21.3853L87.4494 29.8638C87.1503 29.9767 87.1458 30.3981 87.4424 30.5174Z" fill="#235E74" stroke="#FDFBF6" stroke-width="0.87695"/>
<path d="M73.4262 43.019L86.6203 30.339C86.7199 30.2432 86.8664 30.2149 86.9946 30.2666L124.517 45.4022C124.764 45.5019 124.814 45.8302 124.608 45.999L101.619 64.8033C101.556 64.8546 101.477 64.8826 101.396 64.8826H86.9783C86.8574 64.8826 86.7451 64.8203 86.6809 64.7179L73.3719 43.4581C73.2838 43.3173 73.3065 43.1341 73.4262 43.019Z" stroke="#FDFBF6" stroke-width="0.87695"/>
<path d="M163.82 35.7008C158.927 42.2182 144.115 64.3305 143.504 64.9412H194.234L189.596 39.165L163.82 35.7008Z" fill="#235E74" stroke="#FDFBF6" stroke-width="0.87695"/>
<path d="M194.293 64.4127L208.326 50.0274L201.515 26.1888L189.654 39.2237L194.293 64.4127Z" fill="#235E74" stroke="#FDFBF6" stroke-width="0.87695"/>
<path d="M163.584 35.5247L189.712 39.2825L201.749 26.1302L169.866 9.92468L148.611 19.9063L163.584 35.5247Z" fill="#235E74" stroke="#FDFBF6" stroke-width="0.87695"/>
<path d="M148.612 19.9651L163.702 35.5834L143.68 64.3541L135.107 37.3449L148.612 19.9651Z" fill="#235E74" stroke="#FDFBF6" stroke-width="0.87695"/>
</svg>
