<svg width="949" height="405" viewBox="0 0 949 405" fill="none" xmlns="http://www.w3.org/2000/svg">
<g opacity="0.5">
<path d="M670.077 141.192L607.432 117.439L565.281 137.234L538.5 172.148L555.806 225.56H655.794L682.5 196.718L670.077 141.192Z" stroke="#307084" stroke-width="4" stroke-dasharray="4 4"/>
<path d="M313.355 225.322L320.754 211.465L347.176 158.856L404.482 135.37L418.104 175.179L365.965 225.322H313.355Z" fill="#235E74" stroke="#FDFBF6" stroke-width="1.7539"/>
<path d="M266.5 193.614L283.88 170.127L320.753 211.346L313.355 225.32H297.267L266.5 193.614Z" fill="#235E74" stroke="#FDFBF6" stroke-width="1.7539"/>
<path d="M328.033 144.534L297.149 151.345L283.879 169.899L320.87 211.235L347.057 158.978L328.033 144.534Z" fill="#235E74" stroke="#FDFBF6" stroke-width="1.7539"/>
<path d="M347.057 158.736L328.033 144.292L390.976 110.002L404.363 135.25L347.057 158.736Z" fill="#235E74" stroke="#FDFBF6" stroke-width="1.7539"/>
<path d="M390.743 110.005L328.034 144.53L297.267 151.341L290.809 117.286L311.476 102.255L373.715 97.4399L390.743 110.005Z" fill="#235E74" stroke="#FDFBF6" stroke-width="1.7539"/>
<path d="M386.504 206.754L395.483 225.049C395.601 225.289 395.845 225.441 396.113 225.441H536.068C536.254 225.441 536.432 225.367 536.564 225.236L548.858 212.941C549.043 212.757 549.11 212.485 549.032 212.236L539.359 181.26C539.317 181.125 539.234 181.005 539.123 180.918L485.116 138.434C484.924 138.282 484.666 138.242 484.437 138.328L437.504 155.87C437.412 155.904 437.327 155.958 437.257 156.027L386.641 205.945C386.426 206.157 386.371 206.483 386.504 206.754Z" fill="#235E74" stroke="#FDFBF6" stroke-width="1.7539"/>
<path d="M514.678 186.649L538.662 181.193C539.019 181.112 539.378 181.318 539.487 181.667L549.032 212.12C549.11 212.367 549.045 212.636 548.863 212.821L536.682 225.228C536.55 225.363 536.369 225.438 536.181 225.438H469.382C468.724 225.438 468.428 224.613 468.937 224.195L514.387 186.792C514.472 186.722 514.571 186.673 514.678 186.649Z" fill="#235E74" stroke="#FDFBF6" stroke-width="1.7539"/>
<path d="M439.387 156.476L514.31 186.606C514.445 186.66 514.593 186.671 514.734 186.638L537.876 181.154C538.448 181.018 538.61 180.281 538.147 179.919L485 138.316C484.807 138.165 484.549 138.126 484.32 138.212L439.401 155.169C438.803 155.395 438.794 156.238 439.387 156.476Z" fill="#235E74" stroke="#FDFBF6" stroke-width="1.7539"/>
<path d="M411.352 181.482L437.741 156.122C437.94 155.93 438.233 155.874 438.489 155.977L513.534 186.248C514.029 186.448 514.129 187.104 513.716 187.442L467.737 225.05C467.612 225.153 467.455 225.209 467.293 225.209H438.457C438.215 225.209 437.99 225.085 437.862 224.88L411.244 182.36C411.068 182.078 411.113 181.712 411.352 181.482Z" stroke="#FDFBF6" stroke-width="1.7539"/>
</g>
<path d="M197.458 296.56V268.56H199.898L219.218 292.88H217.938V268.56H220.858V296.56H218.418L199.138 272.24H200.418V296.56H197.458ZM237.958 296.76C235.931 296.76 234.104 296.307 232.478 295.4C230.878 294.467 229.611 293.2 228.678 291.6C227.744 289.973 227.278 288.12 227.278 286.04C227.278 283.933 227.744 282.08 228.678 280.48C229.611 278.88 230.878 277.627 232.478 276.72C234.078 275.813 235.904 275.36 237.958 275.36C240.038 275.36 241.878 275.813 243.478 276.72C245.104 277.627 246.371 278.88 247.278 280.48C248.211 282.08 248.678 283.933 248.678 286.04C248.678 288.12 248.211 289.973 247.278 291.6C246.371 293.2 245.104 294.467 243.478 295.4C241.851 296.307 240.011 296.76 237.958 296.76ZM237.958 294.24C239.478 294.24 240.824 293.907 241.998 293.24C243.171 292.547 244.091 291.587 244.758 290.36C245.451 289.107 245.798 287.667 245.798 286.04C245.798 284.387 245.451 282.947 244.758 281.72C244.091 280.493 243.171 279.547 241.998 278.88C240.824 278.187 239.491 277.84 237.998 277.84C236.504 277.84 235.171 278.187 233.998 278.88C232.824 279.547 231.891 280.493 231.198 281.72C230.504 282.947 230.158 284.387 230.158 286.04C230.158 287.667 230.504 289.107 231.198 290.36C231.891 291.587 232.824 292.547 233.998 293.24C235.171 293.907 236.491 294.24 237.958 294.24ZM264.944 296.56V275.56H267.784V296.56H264.944ZM266.384 270.92C265.798 270.92 265.304 270.72 264.904 270.32C264.504 269.92 264.304 269.44 264.304 268.88C264.304 268.32 264.504 267.853 264.904 267.48C265.304 267.08 265.798 266.88 266.384 266.88C266.971 266.88 267.464 267.067 267.864 267.44C268.264 267.813 268.464 268.28 268.464 268.84C268.464 269.427 268.264 269.92 267.864 270.32C267.491 270.72 266.998 270.92 266.384 270.92ZM282.327 296.76C280.353 296.76 278.833 296.227 277.767 295.16C276.7 294.093 276.167 292.587 276.167 290.64V270.92H279.007V290.48C279.007 291.707 279.313 292.653 279.927 293.32C280.567 293.987 281.473 294.32 282.647 294.32C283.9 294.32 284.94 293.96 285.767 293.24L286.767 295.28C286.207 295.787 285.527 296.16 284.727 296.4C283.953 296.64 283.153 296.76 282.327 296.76ZM272.407 277.92V275.56H285.407V277.92H272.407ZM300.114 296.76C297.928 296.76 296.008 296.307 294.354 295.4C292.701 294.467 291.408 293.2 290.474 291.6C289.541 289.973 289.074 288.12 289.074 286.04C289.074 283.96 289.514 282.12 290.394 280.52C291.301 278.92 292.528 277.667 294.074 276.76C295.648 275.827 297.408 275.36 299.354 275.36C301.328 275.36 303.074 275.813 304.594 276.72C306.141 277.6 307.354 278.853 308.234 280.48C309.114 282.08 309.554 283.933 309.554 286.04C309.554 286.173 309.541 286.32 309.514 286.48C309.514 286.613 309.514 286.76 309.514 286.92H291.234V284.8H307.994L306.874 285.64C306.874 284.12 306.541 282.773 305.874 281.6C305.234 280.4 304.354 279.467 303.234 278.8C302.114 278.133 300.821 277.8 299.354 277.8C297.914 277.8 296.621 278.133 295.474 278.8C294.328 279.467 293.434 280.4 292.794 281.6C292.154 282.8 291.834 284.173 291.834 285.72V286.16C291.834 287.76 292.181 289.173 292.874 290.4C293.594 291.6 294.581 292.547 295.834 293.24C297.114 293.907 298.568 294.24 300.194 294.24C301.474 294.24 302.661 294.013 303.754 293.56C304.874 293.107 305.834 292.413 306.634 291.48L308.234 293.32C307.301 294.44 306.128 295.293 304.714 295.88C303.328 296.467 301.794 296.76 300.114 296.76ZM341.575 275.36C343.282 275.36 344.762 275.693 346.015 276.36C347.295 277 348.282 277.987 348.975 279.32C349.695 280.653 350.055 282.333 350.055 284.36V296.56H347.215V284.64C347.215 282.427 346.682 280.76 345.615 279.64C344.575 278.493 343.095 277.92 341.175 277.92C339.735 277.92 338.482 278.227 337.415 278.84C336.375 279.427 335.562 280.293 334.975 281.44C334.415 282.56 334.135 283.92 334.135 285.52V296.56H331.295V284.64C331.295 282.427 330.762 280.76 329.695 279.64C328.628 278.493 327.135 277.92 325.215 277.92C323.802 277.92 322.562 278.227 321.495 278.84C320.428 279.427 319.602 280.293 319.015 281.44C318.455 282.56 318.175 283.92 318.175 285.52V296.56H315.335V275.56H318.055V281.24L317.615 280.24C318.255 278.72 319.282 277.533 320.695 276.68C322.135 275.8 323.828 275.36 325.775 275.36C327.828 275.36 329.575 275.88 331.015 276.92C332.455 277.933 333.388 279.467 333.815 281.52L332.695 281.08C333.308 279.373 334.388 278 335.935 276.96C337.508 275.893 339.388 275.36 341.575 275.36ZM363.397 296.76C361.664 296.76 360.024 296.52 358.477 296.04C356.93 295.533 355.717 294.907 354.837 294.16L356.117 291.92C356.97 292.56 358.064 293.12 359.397 293.6C360.73 294.053 362.13 294.28 363.597 294.28C365.597 294.28 367.037 293.973 367.917 293.36C368.797 292.72 369.237 291.88 369.237 290.84C369.237 290.067 368.984 289.467 368.477 289.04C367.997 288.587 367.357 288.253 366.557 288.04C365.757 287.8 364.864 287.6 363.877 287.44C362.89 287.28 361.904 287.093 360.917 286.88C359.957 286.667 359.077 286.36 358.277 285.96C357.477 285.533 356.824 284.96 356.317 284.24C355.837 283.52 355.597 282.56 355.597 281.36C355.597 280.213 355.917 279.187 356.557 278.28C357.197 277.373 358.13 276.667 359.357 276.16C360.61 275.627 362.13 275.36 363.917 275.36C365.277 275.36 366.637 275.547 367.997 275.92C369.357 276.267 370.477 276.733 371.357 277.32L370.117 279.6C369.184 278.96 368.184 278.507 367.117 278.24C366.05 277.947 364.984 277.8 363.917 277.8C362.024 277.8 360.624 278.133 359.717 278.8C358.837 279.44 358.397 280.267 358.397 281.28C358.397 282.08 358.637 282.707 359.117 283.16C359.624 283.613 360.277 283.973 361.077 284.24C361.904 284.48 362.797 284.68 363.757 284.84C364.744 285 365.717 285.2 366.677 285.44C367.664 285.653 368.557 285.96 369.357 286.36C370.184 286.733 370.837 287.28 371.317 288C371.824 288.693 372.077 289.613 372.077 290.76C372.077 291.987 371.73 293.053 371.037 293.96C370.37 294.84 369.384 295.533 368.077 296.04C366.797 296.52 365.237 296.76 363.397 296.76ZM413.997 275.36C415.704 275.36 417.184 275.693 418.437 276.36C419.717 277 420.704 277.987 421.397 279.32C422.117 280.653 422.477 282.333 422.477 284.36V296.56H419.637V284.64C419.637 282.427 419.104 280.76 418.037 279.64C416.997 278.493 415.517 277.92 413.597 277.92C412.157 277.92 410.904 278.227 409.837 278.84C408.797 279.427 407.984 280.293 407.397 281.44C406.837 282.56 406.557 283.92 406.557 285.52V296.56H403.717V284.64C403.717 282.427 403.184 280.76 402.117 279.64C401.05 278.493 399.557 277.92 397.637 277.92C396.224 277.92 394.984 278.227 393.917 278.84C392.85 279.427 392.024 280.293 391.437 281.44C390.877 282.56 390.597 283.92 390.597 285.52V296.56H387.757V275.56H390.477V281.24L390.037 280.24C390.677 278.72 391.704 277.533 393.117 276.68C394.557 275.8 396.25 275.36 398.197 275.36C400.25 275.36 401.997 275.88 403.437 276.92C404.877 277.933 405.81 279.467 406.237 281.52L405.117 281.08C405.73 279.373 406.81 278 408.357 276.96C409.93 275.893 411.81 275.36 413.997 275.36ZM443.339 296.56V291.92L443.219 291.16V283.4C443.219 281.613 442.712 280.24 441.699 279.28C440.712 278.32 439.232 277.84 437.259 277.84C435.899 277.84 434.605 278.067 433.379 278.52C432.152 278.973 431.112 279.573 430.259 280.32L428.979 278.2C430.045 277.293 431.325 276.6 432.819 276.12C434.312 275.613 435.885 275.36 437.539 275.36C440.259 275.36 442.352 276.04 443.819 277.4C445.312 278.733 446.059 280.773 446.059 283.52V296.56H443.339ZM436.099 296.76C434.525 296.76 433.152 296.507 431.979 296C430.832 295.467 429.952 294.747 429.339 293.84C428.725 292.907 428.419 291.84 428.419 290.64C428.419 289.547 428.672 288.56 429.179 287.68C429.712 286.773 430.565 286.053 431.739 285.52C432.939 284.96 434.539 284.68 436.539 284.68H443.779V286.8H436.619C434.592 286.8 433.179 287.16 432.379 287.88C431.605 288.6 431.219 289.493 431.219 290.56C431.219 291.76 431.685 292.72 432.619 293.44C433.552 294.16 434.859 294.52 436.539 294.52C438.139 294.52 439.512 294.16 440.659 293.44C441.832 292.693 442.685 291.627 443.219 290.24L443.859 292.2C443.325 293.587 442.392 294.693 441.059 295.52C439.752 296.347 438.099 296.76 436.099 296.76ZM460.413 296.76C458.439 296.76 456.919 296.227 455.853 295.16C454.786 294.093 454.253 292.587 454.253 290.64V270.92H457.093V290.48C457.093 291.707 457.399 292.653 458.013 293.32C458.653 293.987 459.559 294.32 460.733 294.32C461.986 294.32 463.026 293.96 463.853 293.24L464.853 295.28C464.293 295.787 463.613 296.16 462.813 296.4C462.039 296.64 461.239 296.76 460.413 296.76ZM450.493 277.92V275.56H463.493V277.92H450.493ZM478 296.76C475.92 296.76 474.054 296.307 472.4 295.4C470.774 294.467 469.494 293.2 468.56 291.6C467.627 289.973 467.16 288.12 467.16 286.04C467.16 283.933 467.627 282.08 468.56 280.48C469.494 278.88 470.774 277.627 472.4 276.72C474.054 275.813 475.92 275.36 478 275.36C479.787 275.36 481.4 275.707 482.84 276.4C484.28 277.093 485.414 278.133 486.24 279.52L484.12 280.96C483.4 279.893 482.507 279.107 481.44 278.6C480.374 278.093 479.214 277.84 477.96 277.84C476.467 277.84 475.12 278.187 473.92 278.88C472.72 279.547 471.774 280.493 471.08 281.72C470.387 282.947 470.04 284.387 470.04 286.04C470.04 287.693 470.387 289.133 471.08 290.36C471.774 291.587 472.72 292.547 473.92 293.24C475.12 293.907 476.467 294.24 477.96 294.24C479.214 294.24 480.374 293.987 481.44 293.48C482.507 292.973 483.4 292.2 484.12 291.16L486.24 292.6C485.414 293.96 484.28 295 482.84 295.72C481.4 296.413 479.787 296.76 478 296.76ZM502.227 275.36C503.934 275.36 505.427 275.693 506.707 276.36C508.014 277 509.027 277.987 509.747 279.32C510.494 280.653 510.867 282.333 510.867 284.36V296.56H508.027V284.64C508.027 282.427 507.467 280.76 506.347 279.64C505.254 278.493 503.707 277.92 501.707 277.92C500.214 277.92 498.907 278.227 497.787 278.84C496.694 279.427 495.84 280.293 495.227 281.44C494.64 282.56 494.347 283.92 494.347 285.52V296.56H491.507V266.88H494.347V281.32L493.787 280.24C494.454 278.72 495.52 277.533 496.987 276.68C498.454 275.8 500.2 275.36 502.227 275.36ZM529.167 304.52C528.18 304.52 527.234 304.36 526.327 304.04C525.447 303.72 524.687 303.24 524.047 302.6L525.367 300.48C525.9 300.987 526.474 301.373 527.087 301.64C527.727 301.933 528.434 302.08 529.207 302.08C530.14 302.08 530.94 301.813 531.607 301.28C532.3 300.773 532.954 299.867 533.567 298.56L534.927 295.48L535.247 295.04L543.887 275.56H546.687L536.167 299.08C535.58 300.44 534.927 301.52 534.207 302.32C533.514 303.12 532.754 303.68 531.927 304C531.1 304.347 530.18 304.52 529.167 304.52ZM534.767 297.16L525.087 275.56H528.047L536.607 294.84L534.767 297.16ZM558.661 296.76C556.634 296.76 554.807 296.307 553.181 295.4C551.581 294.467 550.314 293.2 549.381 291.6C548.447 289.973 547.981 288.12 547.981 286.04C547.981 283.933 548.447 282.08 549.381 280.48C550.314 278.88 551.581 277.627 553.181 276.72C554.781 275.813 556.607 275.36 558.661 275.36C560.741 275.36 562.581 275.813 564.181 276.72C565.807 277.627 567.074 278.88 567.981 280.48C568.914 282.08 569.381 283.933 569.381 286.04C569.381 288.12 568.914 289.973 567.981 291.6C567.074 293.2 565.807 294.467 564.181 295.4C562.554 296.307 560.714 296.76 558.661 296.76ZM558.661 294.24C560.181 294.24 561.527 293.907 562.701 293.24C563.874 292.547 564.794 291.587 565.461 290.36C566.154 289.107 566.501 287.667 566.501 286.04C566.501 284.387 566.154 282.947 565.461 281.72C564.794 280.493 563.874 279.547 562.701 278.88C561.527 278.187 560.194 277.84 558.701 277.84C557.207 277.84 555.874 278.187 554.701 278.88C553.527 279.547 552.594 280.493 551.901 281.72C551.207 282.947 550.861 284.387 550.861 286.04C550.861 287.667 551.207 289.107 551.901 290.36C552.594 291.587 553.527 292.547 554.701 293.24C555.874 293.907 557.194 294.24 558.661 294.24ZM583.859 296.76C582.072 296.76 580.512 296.427 579.179 295.76C577.845 295.093 576.805 294.093 576.059 292.76C575.339 291.427 574.979 289.76 574.979 287.76V275.56H577.819V287.44C577.819 289.68 578.365 291.373 579.459 292.52C580.579 293.64 582.139 294.2 584.139 294.2C585.605 294.2 586.872 293.907 587.939 293.32C589.032 292.707 589.859 291.827 590.419 290.68C591.005 289.533 591.299 288.16 591.299 286.56V275.56H594.139V296.56H591.419V290.8L591.859 291.84C591.192 293.387 590.152 294.6 588.739 295.48C587.352 296.333 585.725 296.76 583.859 296.76ZM602.054 296.56V275.56H604.774V281.28L604.494 280.28C605.08 278.68 606.067 277.467 607.454 276.64C608.84 275.787 610.56 275.36 612.614 275.36V278.12C612.507 278.12 612.4 278.12 612.294 278.12C612.187 278.093 612.08 278.08 611.974 278.08C609.76 278.08 608.027 278.76 606.774 280.12C605.52 281.453 604.894 283.36 604.894 285.84V296.56H602.054ZM634.217 296.76C632.484 296.76 630.844 296.52 629.297 296.04C627.751 295.533 626.537 294.907 625.657 294.16L626.937 291.92C627.791 292.56 628.884 293.12 630.217 293.6C631.551 294.053 632.951 294.28 634.417 294.28C636.417 294.28 637.857 293.973 638.737 293.36C639.617 292.72 640.057 291.88 640.057 290.84C640.057 290.067 639.804 289.467 639.297 289.04C638.817 288.587 638.177 288.253 637.377 288.04C636.577 287.8 635.684 287.6 634.697 287.44C633.711 287.28 632.724 287.093 631.737 286.88C630.777 286.667 629.897 286.36 629.097 285.96C628.297 285.533 627.644 284.96 627.137 284.24C626.657 283.52 626.417 282.56 626.417 281.36C626.417 280.213 626.737 279.187 627.377 278.28C628.017 277.373 628.951 276.667 630.177 276.16C631.431 275.627 632.951 275.36 634.737 275.36C636.097 275.36 637.457 275.547 638.817 275.92C640.177 276.267 641.297 276.733 642.177 277.32L640.937 279.6C640.004 278.96 639.004 278.507 637.937 278.24C636.871 277.947 635.804 277.8 634.737 277.8C632.844 277.8 631.444 278.133 630.537 278.8C629.657 279.44 629.217 280.267 629.217 281.28C629.217 282.08 629.457 282.707 629.937 283.16C630.444 283.613 631.097 283.973 631.897 284.24C632.724 284.48 633.617 284.68 634.577 284.84C635.564 285 636.537 285.2 637.497 285.44C638.484 285.653 639.377 285.96 640.177 286.36C641.004 286.733 641.657 287.28 642.137 288C642.644 288.693 642.897 289.613 642.897 290.76C642.897 291.987 642.551 293.053 641.857 293.96C641.191 294.84 640.204 295.533 638.897 296.04C637.617 296.52 636.057 296.76 634.217 296.76ZM657.028 296.76C654.842 296.76 652.922 296.307 651.268 295.4C649.615 294.467 648.322 293.2 647.388 291.6C646.455 289.973 645.988 288.12 645.988 286.04C645.988 283.96 646.428 282.12 647.308 280.52C648.215 278.92 649.442 277.667 650.988 276.76C652.562 275.827 654.322 275.36 656.268 275.36C658.242 275.36 659.988 275.813 661.508 276.72C663.055 277.6 664.268 278.853 665.148 280.48C666.028 282.08 666.468 283.933 666.468 286.04C666.468 286.173 666.455 286.32 666.428 286.48C666.428 286.613 666.428 286.76 666.428 286.92H648.148V284.8H664.908L663.788 285.64C663.788 284.12 663.455 282.773 662.788 281.6C662.148 280.4 661.268 279.467 660.148 278.8C659.028 278.133 657.735 277.8 656.268 277.8C654.828 277.8 653.535 278.133 652.388 278.8C651.242 279.467 650.348 280.4 649.708 281.6C649.068 282.8 648.748 284.173 648.748 285.72V286.16C648.748 287.76 649.095 289.173 649.788 290.4C650.508 291.6 651.495 292.547 652.748 293.24C654.028 293.907 655.482 294.24 657.108 294.24C658.388 294.24 659.575 294.013 660.668 293.56C661.788 293.107 662.748 292.413 663.548 291.48L665.148 293.32C664.215 294.44 663.042 295.293 661.628 295.88C660.242 296.467 658.708 296.76 657.028 296.76ZM684.823 296.56V291.92L684.703 291.16V283.4C684.703 281.613 684.196 280.24 683.183 279.28C682.196 278.32 680.716 277.84 678.743 277.84C677.383 277.84 676.09 278.067 674.863 278.52C673.636 278.973 672.596 279.573 671.743 280.32L670.463 278.2C671.53 277.293 672.81 276.6 674.303 276.12C675.796 275.613 677.37 275.36 679.023 275.36C681.743 275.36 683.836 276.04 685.303 277.4C686.796 278.733 687.543 280.773 687.543 283.52V296.56H684.823ZM677.583 296.76C676.01 296.76 674.636 296.507 673.463 296C672.316 295.467 671.436 294.747 670.823 293.84C670.21 292.907 669.903 291.84 669.903 290.64C669.903 289.547 670.156 288.56 670.663 287.68C671.196 286.773 672.05 286.053 673.223 285.52C674.423 284.96 676.023 284.68 678.023 284.68H685.263V286.8H678.103C676.076 286.8 674.663 287.16 673.863 287.88C673.09 288.6 672.703 289.493 672.703 290.56C672.703 291.76 673.17 292.72 674.103 293.44C675.036 294.16 676.343 294.52 678.023 294.52C679.623 294.52 680.996 294.16 682.143 293.44C683.316 292.693 684.17 291.627 684.703 290.24L685.343 292.2C684.81 293.587 683.876 294.693 682.543 295.52C681.236 296.347 679.583 296.76 677.583 296.76ZM695.257 296.56V275.56H697.977V281.28L697.697 280.28C698.284 278.68 699.27 277.467 700.657 276.64C702.044 275.787 703.764 275.36 705.817 275.36V278.12C705.71 278.12 705.604 278.12 705.497 278.12C705.39 278.093 705.284 278.08 705.177 278.08C702.964 278.08 701.23 278.76 699.977 280.12C698.724 281.453 698.097 283.36 698.097 285.84V296.56H695.257ZM719.524 296.76C717.444 296.76 715.577 296.307 713.924 295.4C712.297 294.467 711.017 293.2 710.084 291.6C709.15 289.973 708.684 288.12 708.684 286.04C708.684 283.933 709.15 282.08 710.084 280.48C711.017 278.88 712.297 277.627 713.924 276.72C715.577 275.813 717.444 275.36 719.524 275.36C721.31 275.36 722.924 275.707 724.364 276.4C725.804 277.093 726.937 278.133 727.764 279.52L725.644 280.96C724.924 279.893 724.03 279.107 722.964 278.6C721.897 278.093 720.737 277.84 719.484 277.84C717.99 277.84 716.644 278.187 715.444 278.88C714.244 279.547 713.297 280.493 712.604 281.72C711.91 282.947 711.564 284.387 711.564 286.04C711.564 287.693 711.91 289.133 712.604 290.36C713.297 291.587 714.244 292.547 715.444 293.24C716.644 293.907 717.99 294.24 719.484 294.24C720.737 294.24 721.897 293.987 722.964 293.48C724.03 292.973 724.924 292.2 725.644 291.16L727.764 292.6C726.937 293.96 725.804 295 724.364 295.72C722.924 296.413 721.31 296.76 719.524 296.76ZM743.75 275.36C745.457 275.36 746.95 275.693 748.23 276.36C749.537 277 750.55 277.987 751.27 279.32C752.017 280.653 752.39 282.333 752.39 284.36V296.56H749.55V284.64C749.55 282.427 748.99 280.76 747.87 279.64C746.777 278.493 745.23 277.92 743.23 277.92C741.737 277.92 740.43 278.227 739.31 278.84C738.217 279.427 737.364 280.293 736.75 281.44C736.164 282.56 735.87 283.92 735.87 285.52V296.56H733.03V266.88H735.87V281.32L735.31 280.24C735.977 278.72 737.044 277.533 738.51 276.68C739.977 275.8 741.724 275.36 743.75 275.36Z" fill="#5C5D6D"/>
</svg>
