<svg width="94" height="100" viewBox="0 0 94 100" fill="none" xmlns="http://www.w3.org/2000/svg">
<path d="M28.375 80.3705C23.2188 80.3705 19.0469 84.6595 19.0469 89.9016C19.0469 95.1438 23.2188 99.4328 28.375 99.4328C33.5312 99.4328 37.75 95.1438 37.75 89.9016C37.75 84.6595 33.5312 80.3705 28.375 80.3705ZM0.25 4.12109V13.6523H9.625L26.5 49.8231L20.1719 61.4987C19.4219 62.8331 19 64.4058 19 66.0737C19 71.3158 23.2188 75.6049 28.375 75.6049H84.625V66.0737H30.3438C29.6875 66.0737 29.1719 65.5495 29.1719 64.8823L29.3125 64.3104L33.5312 56.5425H68.4531C71.9688 56.5425 75.0625 54.5886 76.6562 51.634L93.4375 20.7053C93.8125 20.0381 94 19.228 94 18.4179C94 15.7968 91.8906 13.6523 89.3125 13.6523H19.9844L15.5781 4.12109H0.25ZM75.25 80.3705C70.0938 80.3705 65.9219 84.6595 65.9219 89.9016C65.9219 95.1438 70.0938 99.4328 75.25 99.4328C80.4062 99.4328 84.625 95.1438 84.625 89.9016C84.625 84.6595 80.4062 80.3705 75.25 80.3705Z" fill="#235E74"/>
<ellipse cx="54.5492" cy="18.0401" rx="17.7445" ry="18.0401" fill="#FDFBF6"/>
<ellipse cx="54.7234" cy="17.8614" rx="15.0828" ry="15.3341" fill="#235E74"/>
<path d="M47.4062 18.5103L51.981 22.7169L62.0454 12.4341" stroke="#FDFBF6" stroke-width="5.48436" stroke-linecap="round" stroke-linejoin="round"/>
</svg>
