<svg width="97" height="104" viewBox="0 0 97 104" fill="none" xmlns="http://www.w3.org/2000/svg">
<path d="M76.75 24.6302V45.2642C76.75 45.7359 77.1746 46.0783 77.6205 45.9246C79.7002 45.2075 84.7857 42.6908 84.7857 35.2242C84.7857 27.8137 79.7763 24.8889 77.6679 23.9861C77.2133 23.7914 76.75 24.1357 76.75 24.6302Z" fill="#235E74" stroke="#235E74" stroke-width="5.99997" stroke-linecap="round"/>
<path d="M76.75 23.6487C76.75 23.6487 72.3617 3 48.4255 3C24.4894 3 20.5 23.6487 20.5 23.6487" stroke="#235E74" stroke-width="5.99997" stroke-linecap="round"/>
<path d="M20.5 24.6302V45.2642C20.5 45.7359 20.0754 46.0783 19.6295 45.9246C17.5498 45.2075 12.4643 42.6908 12.4643 35.2242C12.4643 27.8137 17.4737 24.8889 19.5821 23.9861C20.0367 23.7914 20.5 24.1357 20.5 24.6302Z" fill="#235E74" stroke="#235E74" stroke-width="5.99997" stroke-linecap="round"/>
<rect x="28.1094" y="12.7539" width="41.0357" height="49.3117" rx="20.5179" stroke="#235E74" stroke-width="4.49998"/>
<path d="M76.75 45.5469C76.75 45.5469 75.3443 48.7586 70.8715 50.4104C66.3986 52.0621 60.0089 51.7868 60.0089 51.7868" stroke="#235E74" stroke-width="4.49998" stroke-linecap="round"/>
<path d="M58.5101 52.1201C58.5101 54.4116 56.3565 56.5644 53.3136 56.5644C50.2707 56.5644 48.1172 54.4116 48.1172 52.1201C48.1172 49.8286 50.2707 47.6758 53.3136 47.6758C56.3565 47.6758 58.5101 49.8286 58.5101 52.1201Z" fill="#235E74" stroke="#235E74" stroke-width="2.99999"/>
<path d="M1.83756 101.62C2.23515 98.2043 4.07455 84.9698 9.12126 80.5068C14.7764 75.5057 26.2268 72.5238 34.7782 68.6151C35.168 68.4369 35.6399 68.6085 35.8704 68.9699C36.8841 70.559 40.161 74.3795 48.3654 74.6861C56.8143 75.0019 60.3815 70.5635 61.417 68.8996C61.6264 68.5631 62.0373 68.3875 62.4081 68.5277C66.0728 69.913 84.1439 76.8504 88.3364 80.5068C92.3969 84.048 94.8105 97.9949 95.3727 101.585C95.4431 102.035 95.0935 102.431 94.638 102.431H2.57281C2.13123 102.431 1.7865 102.058 1.83756 101.62Z" fill="#235E74" stroke="#235E74" stroke-width="2.99999" stroke-linecap="round"/>
<path d="M35.2344 69.9519L35.2344 59.3147" stroke="#235E74" stroke-width="5.99997" stroke-linecap="round"/>
<path d="M62.0156 69.9519L62.0156 59.3147" stroke="#235E74" stroke-width="5.99997" stroke-linecap="round"/>
</svg>
