<svg width="33" height="33" viewBox="0 0 22 22" fill="#307084" xmlns="http://www.w3.org/2000/svg">
<path d="M7.3335 16.5C6.32516 16.5 5.50933 17.325 5.50933 18.3333C5.50933 19.3417 6.32516 20.1667 7.3335 20.1667C8.34183 20.1667 9.16683 19.3417 9.16683 18.3333C9.16683 17.325 8.34183 16.5 7.3335 16.5ZM1.8335 1.83334V3.66668H3.66683L6.96683 10.6242L5.72933 12.87C5.58266 13.1267 5.50016 13.4292 5.50016 13.75C5.50016 14.7583 6.32516 15.5833 7.3335 15.5833H18.3335V13.75H7.7185C7.59016 13.75 7.48933 13.6492 7.48933 13.5208L7.51683 13.4108L8.34183 11.9167H15.171C15.8585 11.9167 16.4635 11.5408 16.7752 10.9725L20.0568 5.02334C20.1302 4.89501 20.1668 4.73918 20.1668 4.58334C20.1668 4.07918 19.7543 3.66668 19.2502 3.66668H5.69266L4.831 1.83334H1.8335ZM16.5002 16.5C15.4918 16.5 14.676 17.325 14.676 18.3333C14.676 19.3417 15.4918 20.1667 16.5002 20.1667C17.5085 20.1667 18.3335 19.3417 18.3335 18.3333C18.3335 17.325 17.5085 16.5 16.5002 16.5Z" fill="#307084"/>
</svg>
